<?xml version="1.0" encoding="utf-8"?>
<!-- Generator: Adobe Illustrator 24.3.0, SVG Export Plug-In . SVG Version: 6.00 Build 0)  -->
<svg version="1.1" id="Layer_1" xmlns="http://www.w3.org/2000/svg" xmlns:xlink="http://www.w3.org/1999/xlink" x="0px" y="0px"
	 viewBox="0 0 140.2 14.9" style="enable-background:new 0 0 140.2 14.9;" xml:space="preserve">
<style type="text/css">
	.st0{fill:#0B293A;}
	.st1{fill:#B51E23;}
	.st2{fill:#E21D3E;}
	.st3{fill:#A41E23;}
	.st4{fill:#FFFFFF;}
</style>
<g>
	<g>
		<g>
			<path class="st0" d="M22.1,4.2v2.7h4.5v1.9h-4.5v3.7h-2.3V2.3h7.4v1.9H22.1z"/>
			<path class="st0" d="M29.1,7.4c0-3.1,2.3-5.3,5.4-5.3s5.4,2.2,5.4,5.3s-2.3,5.3-5.4,5.3C31.4,12.8,29.1,10.5,29.1,7.4z M37.5,7.4
				c0-2-1.3-3.3-3.1-3.3c-1.7,0-3.1,1.3-3.1,3.3s1.3,3.3,3.1,3.3S37.5,9.4,37.5,7.4z"/>
			<path class="st0" d="M48.8,12.6l-1.9-2.9h-0.1h-2v2.9h-2.3V2.3h4.2C49.4,2.3,51,3.7,51,6c0,1.5-0.7,2.7-2,3.2l2.2,3.3h-2.4V12.6z
				 M46.7,4.3h-1.8v3.6h1.8c1.4,0,2.1-0.7,2.1-1.8C48.8,4.9,48.1,4.3,46.7,4.3z"/>
			<path class="st0" d="M62.8,12.6V6.4l-2.9,5.1h-1L56,6.6v6h-2.1V2.3h1.9l3.7,6.4L63,2.3h1.9v10.3H62.8z"/>
			<path class="st0" d="M71.9,11.6l0.8-1.8c0.8,0.6,2.1,1.1,3.2,1.1c1.3,0,1.9-0.5,1.9-1.1c0-1.9-5.7-0.6-5.7-4.4
				c0-1.7,1.3-3.2,4.1-3.2c1.2,0,2.5,0.3,3.4,0.9L79,4.9C78,4.3,77.1,4,76.2,4c-1.3,0-1.9,0.5-1.9,1.2c0,1.9,5.7,0.6,5.7,4.4
				c0,1.7-1.4,3.2-4.2,3.2C74.4,12.8,72.8,12.3,71.9,11.6z"/>
			<path class="st0" d="M90.3,10.7v1.9h-7.6V2.3h7.4v1.9H85v2.2h4.5v1.8H85v2.4L90.3,10.7L90.3,10.7z"/>
			<path class="st0" d="M99.3,12.6l-1.9-2.9h-0.1h-2v2.9H93V2.3h4.2c2.6,0,4.2,1.4,4.2,3.7c0,1.5-0.7,2.7-2,3.2l2.2,3.3h-2.3V12.6z
				 M97.2,4.3h-1.8v3.6h1.8c1.4,0,2.1-0.7,2.1-1.8C99.3,4.9,98.6,4.3,97.2,4.3z"/>
			<path class="st0" d="M113.8,2.3l-4.2,10.3h-2.2l-4.2-10.3h2.4l3,7.3l3-7.3C111.6,2.3,113.8,2.3,113.8,2.3z"/>
			<path class="st0" d="M115.7,2.3h2.3v10.3h-2.3V2.3z"/>
			<path class="st0" d="M120.7,7.4c0-3.1,2.3-5.3,5.3-5.3c1.7,0,3.1,0.6,4,1.8l-1.5,1.4c-0.7-0.8-1.5-1.2-2.5-1.2
				c-1.8,0-3.1,1.3-3.1,3.3s1.3,3.3,3.1,3.3c1,0,1.8-0.4,2.5-1.2l1.5,1.4c-0.9,1.2-2.3,1.8-4,1.8C123,12.8,120.7,10.5,120.7,7.4z"/>
			<path class="st0" d="M140.2,10.7v1.9h-7.6V2.3h7.4v1.9h-5.1v2.2h4.5v1.8h-4.5v2.4L140.2,10.7L140.2,10.7z"/>
		</g>
	</g>
</g>
<g>
	<g>
		<g>
			<path class="st1" d="M9.4,3.9c-0.1,0-0.2,0-0.3-0.1L8.8,3.4V0.1V0H1C0.6,0,0.4,0.3,0.4,0.6v13.7c0,0.3,0.3,0.6,0.6,0.6h10.8
				l-2.3-2.6l-1.3,2.3L6.7,7.1l6.4,3V3.9H9.4z"/>
			<polygon class="st1" points="13.1,13.6 13.1,10.3 11,11.1 			"/>
		</g>
		<path class="st2" d="M8.8,0L8.8,0L8.8,0z"/>
		<polygon class="st3" points="9.2,3.9 13.1,7.7 13.1,3.9 		"/>
		<path class="st2" d="M8.8,0L8.8,0v3.3c0,0.3,0.3,0.6,0.6,0.6h3.7l0,0L8.8,0z"/>
	</g>
	<g>
		<path class="st4" d="M13.1,13.6L11,11.1l2.2-0.8v-0.2l-6.4-3l1.5,7.5l1.3-2.3l2.3,2.6h0.8c0.3,0,0.6-0.2,0.6-0.6L13.1,13.6"/>
	</g>
</g>
</svg>
