<?xml version="1.0" encoding="utf-8"?>
<!-- Generator: Adobe Illustrator 24.3.0, SVG Export Plug-In . SVG Version: 6.00 Build 0)  -->
<svg version="1.1" id="Layer_1" xmlns="http://www.w3.org/2000/svg" xmlns:xlink="http://www.w3.org/1999/xlink" x="0px" y="0px"
	 viewBox="0 0 186.97 20" style="enable-background:new 0 0 186.97 20;" xml:space="preserve">
<style type="text/css">
	.st0{fill:#0B293A;}
	.st1{fill:#B51E23;}
	.st2{fill:#E21D3E;}
	.st3{fill:#A41E23;}
	.st4{fill:#FFFFFF;}
</style>
<g>
	<g>
		<g>
			<path class="st0" d="M29.04,5.65v3.63h6.06v2.55h-6.06v5h-3.03V3.1h9.89v2.55H29.04z"/>
			<path class="st0" d="M38.4,9.96c0-4.08,3.03-7.1,7.16-7.1c4.11,0,7.16,3,7.16,7.1s-3.05,7.1-7.16,7.1
				C41.43,17.06,38.4,14.04,38.4,9.96z M49.66,9.96c0-2.61-1.76-4.39-4.09-4.39c-2.34,0-4.09,1.78-4.09,4.39s1.76,4.39,4.09,4.39
				C47.9,14.35,49.66,12.57,49.66,9.96z"/>
			<path class="st0" d="M64.75,16.82L62.22,13h-0.15h-2.64v3.82h-3.03V3.1h5.66c3.5,0,5.68,1.9,5.68,4.98
				c0,2.06-0.99,3.57-2.69,4.33L68,16.82H64.75z M61.9,5.69h-2.47v4.78h2.47c1.85,0,2.79-0.9,2.79-2.39
				C64.69,6.57,63.76,5.69,61.9,5.69z"/>
			<path class="st0" d="M83.46,16.82l-0.02-8.23l-3.85,6.78h-1.36l-3.83-6.61v8.06h-2.84V3.1h2.51l4.9,8.53l4.82-8.53h2.49
				l0.04,13.72H83.46z"/>
			<path class="st0" d="M95.68,15.47l1.03-2.39c1.1,0.84,2.75,1.43,4.32,1.43c1.79,0,2.52-0.63,2.52-1.47c0-2.57-7.61-0.8-7.61-5.9
				c0-2.33,1.79-4.27,5.52-4.27c1.65,0,3.33,0.41,4.54,1.21l-0.94,2.41c-1.22-0.72-2.47-1.08-3.63-1.08c-1.79,0-2.49,0.71-2.49,1.57
				c0,2.53,7.61,0.78,7.61,5.82c0,2.29-1.81,4.25-5.55,4.25C98.93,17.06,96.84,16.41,95.68,15.47z"/>
			<path class="st0" d="M120.17,14.28v2.55h-10.13V3.1h9.89v2.55h-6.88v2.98h6.08v2.47h-6.08v3.18H120.17z"/>
			<path class="st0" d="M132.32,16.82L129.8,13h-0.15h-2.64v3.82h-3.03V3.1h5.66c3.5,0,5.68,1.9,5.68,4.98
				c0,2.06-0.99,3.57-2.69,4.33l2.94,4.41H132.32z M129.48,5.69h-2.47v4.78h2.47c1.85,0,2.79-0.9,2.79-2.39
				C132.27,6.57,131.33,5.69,129.48,5.69z"/>
			<path class="st0" d="M151.71,3.1l-5.66,13.72h-2.99L137.41,3.1h3.27l3.98,9.8l4.04-9.8H151.71z"/>
			<path class="st0" d="M154.2,3.1h3.03v13.72h-3.03V3.1z"/>
			<path class="st0" d="M160.91,9.96c0-4.14,3.03-7.1,7.1-7.1c2.26,0,4.15,0.86,5.38,2.43l-1.94,1.88
				c-0.88-1.06-1.98-1.61-3.29-1.61c-2.45,0-4.19,1.8-4.19,4.39s1.74,4.39,4.19,4.39c1.31,0,2.41-0.55,3.29-1.63l1.94,1.88
				c-1.23,1.59-3.12,2.45-5.4,2.45C163.94,17.06,160.91,14.1,160.91,9.96z"/>
			<path class="st0" d="M186.97,14.28v2.55h-10.13V3.1h9.89v2.55h-6.88v2.98h6.08v2.47h-6.08v3.18H186.97z"/>
		</g>
	</g>
</g>
<g>
	<g>
		<g>
			<path class="st1" d="M12.07,5.25c-0.13,0-0.24-0.03-0.35-0.08l-0.41-0.6v-4.4L11.28,0H0.76C0.34,0,0,0.36,0,0.8v18.33
				c0,0.44,0.34,0.8,0.76,0.8h14.49l-3.04-3.48l-1.78,3.09L8.45,9.53l8.6,3.96V5.25H12.07z"/>
			<polygon class="st1" points="17.05,18.12 17.05,13.77 14.14,14.81 			"/>
		</g>
		<polygon class="st2" points="11.28,0 11.28,0 11.28,0 		"/>
		<polygon class="st3" points="11.73,5.18 17.05,10.28 17.05,5.25 		"/>
		<path class="st2" d="M11.28,0L11.28,0l-0.06,4.44c-0.01,0.45,0.38,0.81,0.85,0.81h4.98v0L11.28,0z"/>
	</g>
	<g>
		<path class="st4" d="M17.05,18.12l-2.91-3.31l2.91-1.04v-0.29l-8.6-3.96l1.98,10.01l1.78-3.09l3.04,3.48h1.06
			c0.41,0,0.75-0.33,0.75-0.75L17.05,18.12"/>
	</g>
</g>
</svg>
